<svg width="460" height="96" viewBox="0 0 460 96" fill="none" xmlns="http://www.w3.org/2000/svg" role="img" aria-labelledby="title desc">
  <title id="title">CareBridge logo</title>
  <desc id="desc">A hospital transfer coordination logo with a medical cross and connected care pathway.</desc>
  <defs>
    <linearGradient id="markGradient" x1="14" y1="10" x2="82" y2="86" gradientUnits="userSpaceOnUse">
      <stop offset="0" stop-color="#38BDF8"/>
      <stop offset="0.52" stop-color="#2563EB"/>
      <stop offset="1" stop-color="#0891B2"/>
    </linearGradient>
    <linearGradient id="wordGradient" x1="102" y1="30" x2="404" y2="66" gradientUnits="userSpaceOnUse">
      <stop offset="0" stop-color="#0F172A"/>
      <stop offset="1" stop-color="#2563EB"/>
    </linearGradient>
    <filter id="softShadow" x="-20%" y="-20%" width="140%" height="140%" color-interpolation-filters="sRGB">
      <feDropShadow dx="0" dy="8" stdDeviation="8" flood-color="#0F172A" flood-opacity="0.16"/>
    </filter>
  </defs>

  <g filter="url(#softShadow)">
    <rect x="12" y="12" width="72" height="72" rx="20" fill="url(#markGradient)"/>
    <path d="M48 26C58.8 26 67.6 34.8 67.6 45.6C67.6 58.5 55.4 67.5 48 71.2C40.6 67.5 28.4 58.5 28.4 45.6C28.4 34.8 37.2 26 48 26Z" fill="white" fill-opacity="0.16"/>
    <path d="M43.8 33.8H52.2V43.4H61.8V51.8H52.2V61.4H43.8V51.8H34.2V43.4H43.8V33.8Z" fill="white"/>
    <path d="M25 63.5C36.2 73.6 55.6 74.1 70.2 58.6" stroke="white" stroke-opacity="0.82" stroke-width="4.4" stroke-linecap="round"/>
    <path d="M69.2 58.8L66.4 69.2" stroke="white" stroke-opacity="0.82" stroke-width="4.4" stroke-linecap="round"/>
  </g>

  <text x="102" y="55" fill="url(#wordGradient)" font-family="Segoe UI, Arial, sans-serif" font-size="32" font-weight="800" letter-spacing="0">
    Care<tspan fill="#0891B2">Bridge</tspan>
  </text>
  <text x="104" y="76" fill="#64748B" font-family="Segoe UI, Arial, sans-serif" font-size="13" font-weight="700" letter-spacing="0.8">
    HOSPITAL CAPACITY COORDINATION
  </text>
</svg>
